<?xml version="1.0" encoding="iso-8859-1"?>
<!-- Generator: Adobe Illustrator 19.0.0, SVG Export Plug-In . SVG Version: 6.00 Build 0)  -->
<svg version="1.1" id="Layer_1" xmlns="http://www.w3.org/2000/svg" xmlns:xlink="http://www.w3.org/1999/xlink" x="0px" y="0px"
	 viewBox="0 0 512 512" style="enable-background:new 0 0 512 512;" xml:space="preserve">
<g>
	<g>
		<path d="M365.011,275.226c-18.877-22.035-29.273-50.646-29.273-80.559v-20.76c0-22.4-18.223-40.622-40.622-40.622h-28.917v-11.765
			c18.285-4.571,31.872-21.133,31.872-40.814c0-19.682-13.585-36.252-31.872-40.821V10.199C266.199,4.567,261.633,0,255.999,0
			C250.366,0,245.8,4.567,245.8,10.199v38.633c0,5.632,4.566,10.199,10.199,10.199c11.95,0,21.672,9.722,21.672,21.673
			c0,8.264-4.653,15.458-11.474,19.112v-9.454c0-5.632-4.566-10.199-10.199-10.199c-5.633,0-10.199,4.567-10.199,10.199v9.454
			c-6.821-3.654-11.474-10.848-11.474-19.112c0-5.632-4.566-10.199-10.199-10.199s-10.199,4.567-10.199,10.199
			c0,19.681,13.587,36.243,31.873,40.814v11.765h-28.915c-22.4,0-40.622,18.223-40.622,40.622v21.557
			c0,29.036-10.661,57.675-30.018,80.641c-22.11,26.231-34.084,59.606-33.718,93.979c0.403,37.689,15.428,73.195,42.309,99.975
			c26.88,26.779,62.441,41.674,100.132,41.94c0.348,0.002,0.695,0.003,1.041,0.003c38.14,0,74.005-14.773,101.087-41.666
			c27.333-27.14,42.386-63.299,42.386-101.817C399.482,334.306,387.24,301.174,365.011,275.226z M132.923,369.865
			c-0.315-29.488,9.954-58.117,28.918-80.615c22.454-26.639,34.82-59.948,34.82-93.788v-21.557c0-11.152,9.073-20.224,20.224-20.224
			h2.836c-1.704,5.821-2.643,12.66-2.643,20.224v21.557c0,30.325-4.554,60.109-12.823,83.862
			c-8.853,25.429-13.649,57.638-13.503,90.694c0.213,48.443,10.415,89.865,26.49,115.255
			C168.869,469.027,133.494,423.322,132.923,369.865z M342.723,455.859c-23.234,23.071-53.997,35.744-86.72,35.742
			c-0.074,0-0.149-0.001-0.223-0.001c-0.001,0-0.002,0-0.004,0c-20.815-0.357-44.322-52.466-44.627-121.672
			c-0.136-30.803,4.256-60.599,12.368-83.898c9.001-25.855,13.958-58.019,13.958-90.569v-21.557c0-11.106,2.688-17.915,4.227-20.224
			h28.594c1.537,2.309,4.227,9.118,4.227,20.224v20.76c0,33.475,4.861,65.649,13.688,90.597
			c8.152,23.037,12.641,52.603,12.641,83.254c0,18.565-1.59,36.454-4.726,53.172c-1.038,5.536,2.608,10.866,8.144,11.905
			c5.535,1.041,10.866-2.608,11.904-8.143c3.368-17.955,5.076-37.109,5.076-56.932c0-32.909-4.905-64.892-13.81-90.059
			c-8.074-22.818-12.52-52.577-12.52-83.793v-20.76c0-7.564-0.938-14.403-2.643-20.224h2.836c11.152,0,20.224,9.073,20.224,20.224
			v20.76c0,34.777,12.138,68.101,34.18,93.831c19.064,22.255,29.564,50.674,29.564,80.021
			C379.083,401.559,366.17,432.578,342.723,455.859z"/>
	</g>
</g>
<g>
	<g>
		<path d="M300.864,446.819c-5.296-1.922-11.145,0.816-13.065,6.111c-1.096,3.022-2.262,5.943-3.467,8.682
			c-2.269,5.156,0.071,11.174,5.227,13.444c1.336,0.587,2.73,0.867,4.102,0.867c3.922,0,7.661-2.274,9.34-6.095
			c1.387-3.151,2.723-6.496,3.974-9.942C308.896,454.589,306.159,448.739,300.864,446.819z"/>
	</g>
</g>
<g>
</g>
<g>
</g>
<g>
</g>
<g>
</g>
<g>
</g>
<g>
</g>
<g>
</g>
<g>
</g>
<g>
</g>
<g>
</g>
<g>
</g>
<g>
</g>
<g>
</g>
<g>
</g>
<g>
</g>
</svg>
